<?xml version="1.0" encoding="UTF-8" standalone="no"?>
<svg
   xmlns:dc="http://purl.org/dc/elements/1.1/"
   xmlns:cc="http://creativecommons.org/ns#"
   xmlns:rdf="http://www.w3.org/1999/02/22-rdf-syntax-ns#"
   xmlns:svg="http://www.w3.org/2000/svg"
   xmlns="http://www.w3.org/2000/svg"
   xmlns:sodipodi="http://sodipodi.sourceforge.net/DTD/sodipodi-0.dtd"
   xmlns:inkscape="http://www.inkscape.org/namespaces/inkscape"
   width="2000"
   height="2000"
   viewBox="0 0 529.16636 529.16666"
   version="1.1"
   id="svg4"
   sodipodi:docname="voctocat.svg"
   inkscape:version="1.0.2 (e86c870879, 2021-01-15, custom)"
   inkscape:export-filename="/home/lukas2511/voctocat.png"
   inkscape:export-xdpi="300.23999"
   inkscape:export-ydpi="300.23999">
  <metadata
     id="metadata10">
    <rdf:RDF>
      <cc:Work
         rdf:about="">
        <dc:format>image/svg+xml</dc:format>
        <dc:type
           rdf:resource="http://purl.org/dc/dcmitype/StillImage" />
        <dc:title />
      </cc:Work>
    </rdf:RDF>
  </metadata>
  <defs
     id="defs8" />
  <sodipodi:namedview
     pagecolor="#ffffff"
     bordercolor="#666666"
     borderopacity="1"
     objecttolerance="10"
     gridtolerance="10"
     guidetolerance="10"
     inkscape:pageopacity="0"
     inkscape:pageshadow="2"
     inkscape:window-width="2233"
     inkscape:window-height="1038"
     id="namedview6"
     showgrid="false"
     units="px"
     fit-margin-top="2"
     fit-margin-left="2"
     fit-margin-right="2"
     fit-margin-bottom="2"
     inkscape:zoom="0.15610417"
     inkscape:cx="-154.40645"
     inkscape:cy="577.28996"
     inkscape:window-x="0"
     inkscape:window-y="0"
     inkscape:window-maximized="1"
     inkscape:current-layer="svg4"
     inkscape:document-rotation="0" />
  <path
     d="M 264.57543,6.0469062 C 121.38297,6.0469062 5.2916788,122.1382 5.2916788,265.34645 a 259.29955,259.29955 0 0 0 16.9454762,91.9023 c 3.798486,-9.94462 8.156196,-19.65188 13.64818,-28.76824 2.796108,-4.6426 5.871826,-9.14276 7.924066,-14.13882 2.057514,-5.0119 3.007136,-10.66742 1.43498,-15.84286 -0.89686,-2.94384 -2.585078,-5.60278 -4.410462,-8.0718 -1.830658,-2.47956 -3.835418,-4.82196 -5.502532,-7.41232 -4.241646,-6.57876 -6.18837,-14.67692 -5.085754,-22.42162 1.1079,-7.75526 5.28623,-15.08846 11.58539,-19.7416 5.613319,-4.14666 12.703831,-6.01428 19.709931,-5.75048 a 35.136013,35.136013 0 0 1 6.911138,0.9496 c 9.053062,2.19996 17.040439,7.86074 22.965023,15.03568 7.343744,8.9159 11.659245,20.1953 12.714385,31.69626 1.06568,11.50098 -1.05514,23.21298 -5.497257,33.86986 -7.966272,19.09796 -23.012505,34.51348 -31.295317,53.47428 -6.763422,15.48938 -8.704872,32.76196 -7.781626,49.64412 0.1266,1.572 0.33766,3.13376 0.47482,4.7059 a 259.29955,259.29955 0 0 0 72.38757,63.60883 352.57353,352.57353 0 0 1 -2.57453,-42.20539 c 0.0368,-11.22666 0.6067,-22.42164 1.68822,-33.50058 -6.82146,-4.6953 -13.01511,-10.18202 -17.40975,-17.16174 -7.81855,-12.43478 -9.29574,-28.17212 -6.07758,-42.50612 3.21817,-14.33404 10.81514,-27.39134 19.94206,-38.89758 15.05679,-18.96608 34.72452,-34.31302 56.703,-44.47398 -0.63308,-0.8704 -1.26616,-1.762 -1.79378,-2.51122 -8.09291,-13.0995 -12.87267,-28.19322 -14.03332,-43.55072 -1.18169,-15.5316 1.26616,-31.08432 2.29492,-46.62116 0.73853,-10.83625 0.78087,-21.68303 1.41395,-32.52455 0.73853,-12.54029 2.26854,-25.0964 5.78743,-37.15133 1.27674,-4.36826 2.83832,-8.731243 5.31787,-12.556109 A 28.013849,28.013849 0 0 1 195.5643,84.116387 c 5.47089,-2.163028 10.22427,-2.627288 15.51051,-1.74098 4.421,0.94962 8.50964,3.139032 12.09186,5.90876 3.58744,2.753904 6.68428,6.082858 9.61228,9.53315 a 145.95163,145.95163 0 0 1 20.7545,32.318803 71.422126,71.422126 0 0 1 21.8413,0 145.73005,145.73005 0 0 1 20.76508,-32.324075 c 2.92274,-3.450288 6.03008,-6.779242 9.6123,-9.53842 3.58746,-2.764456 7.67082,-4.959136 12.09712,-5.89821 a 25.360183,25.360183 0 0 1 15.60018,1.74098 28.045503,28.045503 0 0 1 11.8861,10.340328 c 2.47958,3.814316 4.04116,8.156197 5.31788,12.529737 3.51362,12.05492 5.04356,24.61104 5.78214,37.14077 0.6332,10.8468 0.6858,21.72523 1.4244,32.55094 1.0288,15.54213 3.49776,31.0737 2.3213,46.60004 a 97.098849,97.098849 0 0 1 -14.0755,43.56128 c -0.6332,1.0024 -1.4034,1.915 -2.05752,2.90162 4.92748,5.55 11.95994,10.26648 17.9584,12.28178 a 39.113875,39.113875 0 0 0 20.96554,0.8546 33.009915,33.009915 0 0 0 10.67796,-4.52654 25.059471,25.059471 0 0 0 7.9399,-8.35668 c 2.37406,-4.16778 3.32368,-8.96866 3.85126,-13.74314 1.3452,-12.17626 0,-24.47914 -1.0024,-36.68706 -0.6858,-7.92406 -1.2396,-15.9853 0.538,-23.74056 1.203,-5.24928 3.55584,-10.38252 7.4915,-14.04911 a 22.115641,22.115641 0 0 1 9.29572,-5.06465 26.241221,26.241221 0 0 1 10.60412,-0.58044 c 7.59698,1.10802 14.70858,5.45505 18.95024,11.8439 2.41096,3.62968 3.87762,7.82384 4.75864,12.09714 0.8756,4.2733 1.1976,8.62572 1.4348,12.97816 0.823,15.2098 0.7914,30.44068 0.3694,45.67156 -0.3534,13.2947 -1.1078,26.95872 -6.42578,39.14554 -6.83728,15.64234 -20.6068,27.31744 -35.47892,35.70578 a 141.03469,141.03469 0 0 1 -31.7385,12.97814 c 9.63866,30.76776 14.65584,64.81172 14.65584,99.34102 a 351.97739,351.97739 0 0 1 -2.69054,42.51139 259.28901,259.28901 0 0 0 127.67141,-223.04507 C 523.85916,122.14347 407.76789,6.0574596 264.57543,6.0574596 Z M 192.05596,325.67911 v 29.65988 a 37.599757,37.599757 0 0 1 21.66721,7.24876 34.756165,34.756165 0 0 1 11.12114,13.61126 c 2.4268,5.40756 3.32366,11.51682 2.32128,17.35698 a 29.860337,29.860337 0 0 1 -6.6368,14.15992 32.936057,32.936057 0 0 1 -12.71436,9.15858 34.766717,34.766717 0 0 1 -15.75847,2.44262 v 74.62447 l 155.24209,-84.17343 -155.24738,-84.0943 z"
     id="path2"
     inkscape:connector-curvature="0"
     style="stroke-width:5.27569" />
</svg>
